<?xml version="1.0" encoding="utf-8" standalone="no"?>
<!DOCTYPE svg PUBLIC "-//W3C//DTD SVG 1.1//EN"
  "http://www.w3.org/Graphics/SVG/1.1/DTD/svg11.dtd">
<!-- Created with matplotlib (http://matplotlib.org/) -->
<svg height="301pt" version="1.1" viewBox="0 0 514 301" width="514pt" xmlns="http://www.w3.org/2000/svg" xmlns:xlink="http://www.w3.org/1999/xlink">
 <defs>
  <style type="text/css">
*{stroke-linecap:butt;stroke-linejoin:round;}
  </style>
 </defs>
 <g id="figure_1">
  <g id="patch_1">
   <path d="
M0 301.356
L514.903 301.356
L514.903 0
L0 0
z
" style="fill:#ffffff;"/>
  </g>
  <g id="axes_1">
   <g id="patch_2">
    <path d="
M61.3031 246.478
L507.703 246.478
L507.703 16.0781
L61.3031 16.0781
z
" style="fill:#ffffff;"/>
   </g>
   <g id="matplotlib.axis_1">
    <g id="xtick_1">
     <g id="line2d_1">
      <defs>
       <path d="
M0 0
L0 0" id="m219da94a98" style="stroke:#262626;"/>
      </defs>
      <g>
       <use style="fill:#262626;stroke:#262626;" x="91.063125" xlink:href="#m219da94a98" y="246.478125"/>
      </g>
     </g>
     <g id="text_1">
      <!-- 1-sub. -->
      <defs>
       <path d="
M1.125 17.1875
L1.125 27.2969
L27.5938 27.2969
L27.5938 17.1875
z
" id="Cmb10-2d"/>
       <path d="
M5.90625 8.01562
Q5.90625 11.2344 8.25 13.625
Q10.5938 16.0156 13.9219 16.0156
Q17.2344 16.0156 19.5781 13.6719
Q21.9219 11.3281 21.9219 8.01562
Q21.9219 4.6875 19.5312 2.34375
Q17.1406 0 13.9219 0
Q10.6875 0 8.29688 2.39062
Q5.90625 4.78125 5.90625 8.01562" id="Cmb10-2e"/>
       <path d="
M9.07812 11.625
L9.07812 36.2812
Q9.07812 39.1094 2.20312 39.1094
L2.20312 44.1875
L20.9062 45.0156
L20.9062 12.0156
L20.9062 11.625
Q20.9062 8.0625 21.2188 6.5
Q21.5312 4.9375 22.875 4.17188
Q24.2188 3.42188 27.3906 3.42188
Q31.8438 3.42188 34.3281 7.29688
Q36.8125 11.1875 36.8125 15.9219
L36.8125 36.2812
Q36.8125 39.1094 29.8906 39.1094
L29.8906 44.1875
L48.5781 45.0156
L48.5781 7.90625
Q48.5781 6.10938 50.5625 5.59375
Q52.5469 5.07812 55.5156 5.07812
L55.5156 0
L37.4062 -0.59375
L37.4062 6
Q33.3438 -0.59375 26.5156 -0.59375
Q21.3906 -0.59375 17.6562 0.3125
Q13.9219 1.21875 11.5 3.90625
Q9.07812 6.59375 9.07812 11.625" id="Cmb10-75"/>
       <path d="
M3.32812 0.6875
L3.32812 14.5938
Q3.5625 15.5312 4.59375 15.8281
L7.17188 15.8281
Q8.15625 15.4844 8.40625 14.5938
Q10.9844 3.42188 19.6719 3.42188
Q28.5156 3.42188 28.5156 10.6875
Q28.5156 12.5 27.5781 13.9375
Q26.6562 15.375 25.1406 16.3281
Q23.6406 17.2812 21.9219 17.6719
L15.9219 18.8906
Q10.5 20.2188 6.90625 23.5625
Q3.32812 26.9062 3.32812 31.8906
Q3.32812 35.5 4.5625 38.125
Q5.8125 40.7656 8.07812 42.3594
Q10.3594 43.9531 13.2344 44.625
Q16.1094 45.3125 19.6719 45.3125
Q24.3594 45.3125 27.4844 43.6094
L30.7188 45.2188
L31.1094 45.3125
L32.3281 45.3125
Q33.25 45.0625 33.5 44.0938
L33.5 33.1094
Q33.25 32.0312 32.3281 31.7812
L29.6875 31.7812
Q28.6562 32.0312 28.4219 33.1094
Q28.4219 35.75 27.3125 37.6719
Q26.2188 39.5938 24.2188 40.6406
Q22.2188 41.7031 19.4844 41.7031
Q10.7969 41.7031 10.7969 35.6875
Q10.7969 33.5 12.6719 32
Q14.5469 30.5156 17 29.8906
L23.0938 28.7188
Q26.7656 27.7812 29.6406 25.8438
Q32.5156 23.9219 34.25 20.9219
Q35.9844 17.9219 35.9844 14.2031
Q35.9844 6.6875 31.5938 3.04688
Q27.2031 -0.59375 19.6719 -0.59375
Q14.0156 -0.59375 10.2969 2.20312
L6.10938 -0.484375
L5.71875 -0.59375
L4.59375 -0.59375
Q3.5625 -0.34375 3.32812 0.6875" id="Cmb10-73"/>
       <path d="
M8.29688 0
L8.29688 60.6875
Q8.29688 62.5469 6.34375 63.0156
Q4.39062 63.4844 1.42188 63.4844
L1.42188 68.6094
L19.4844 69.3906
L19.4844 41.0156
Q24.9062 45.0156 31.5938 45.0156
Q38.0938 45.0156 42.7188 41.9844
Q47.3594 38.9688 49.7812 33.7812
Q52.2031 28.6094 52.2031 22.2188
Q52.2031 15.625 49.5312 10.4219
Q46.875 5.21875 41.8594 2.3125
Q36.8594 -0.59375 30.3281 -0.59375
Q26.8125 -0.59375 23.7031 0.796875
Q20.6094 2.20312 18.1094 4.6875
L13.375 0
z

M20.125 9.07812
Q23.7344 3.42188 29.3906 3.42188
Q33.7344 3.42188 35.875 6.375
Q38.0312 9.32812 38.5156 13.1562
Q39.0156 17 39.0156 22.125
L39.0156 22.4062
Q39.0156 30.125 37.5469 35.5625
Q36.0781 41.0156 30.5156 41.0156
Q27.4375 41.0156 24.75 39.5469
Q22.0781 38.0938 20.125 35.5
z
" id="Cmb10-62"/>
       <path d="
M8.29688 0
L8.29688 5.07812
L19.2812 5.07812
L19.2812 55.6094
Q14.1094 54 6.89062 54
L6.89062 59.0781
Q20.8438 59.0781 27.5938 65.4844
L29.9844 65.4844
Q31.2969 65.1875 31.5938 63.9219
L31.5938 5.07812
L43.0156 5.07812
L43.0156 0
z
" id="Cmb10-31"/>
      </defs>
      <g style="fill:#262626;" transform="translate(66.1865625 267.35625)scale(0.2 -0.2)">
       <use xlink:href="#Cmb10-31"/>
       <use x="50.0" xlink:href="#Cmb10-2d"/>
       <use x="83.30078125" xlink:href="#Cmb10-73"/>
       <use x="122.705078125" xlink:href="#Cmb10-75"/>
       <use x="178.22265625" xlink:href="#Cmb10-62"/>
       <use x="233.740234375" xlink:href="#Cmb10-2e"/>
      </g>
     </g>
    </g>
    <g id="xtick_2">
     <g id="line2d_2">
      <g>
       <use style="fill:#262626;stroke:#262626;" x="210.103125" xlink:href="#m219da94a98" y="246.478125"/>
      </g>
     </g>
     <g id="text_2">
      <!-- 3-sub. -->
      <defs>
       <path d="
M13.8125 6.59375
Q17.6719 3.60938 23.0938 3.60938
Q27.6406 3.60938 28.8125 7.8125
Q29.9844 12.0156 29.9844 18.1094
L29.9844 18.4062
Q29.9844 24.4688 28.7656 28.6406
Q27.5469 32.8125 22.9062 32.8125
L18.0156 32.8125
Q16.9375 33.0625 16.7031 34.0781
L16.7031 35.5938
Q17 36.5781 18.0156 36.8125
L22.0156 37.1094
Q25.9844 37.1094 27.4375 41.7969
Q28.9062 46.4844 28.9062 51.7031
Q28.9062 56.0625 27.8281 58.625
Q26.7656 61.1875 23.0938 61.1875
Q18.2656 61.1875 14.9844 57.9062
Q17.8281 57.5156 19.5 55.5312
Q21.1875 53.5625 21.1875 50.7812
Q21.1875 47.7969 19.1406 45.75
Q17.0938 43.7031 14.1094 43.7031
Q11.0312 43.7031 8.95312 45.7188
Q6.89062 47.75 6.89062 50.7812
Q6.89062 57.0781 11.75 61.2812
Q16.6094 65.4844 23.0938 65.4844
Q26.6562 65.4844 30.125 64.75
Q33.5938 64.0156 36.5156 62.4062
Q39.4531 60.7969 41.2344 58.125
Q43.0156 55.4688 43.0156 51.6094
Q43.0156 47.7969 41.2969 44.5
Q39.5938 41.2188 36.7188 38.7969
Q33.8438 36.375 30.1719 34.9062
Q34.5781 33.9844 38.0938 31.7344
Q41.6094 29.5 43.6562 26.0781
Q45.7031 22.6562 45.7031 18.2188
Q45.7031 11.9688 42.5938 7.59375
Q39.5 3.21875 34.3438 1.04688
Q29.2031 -1.125 23.0938 -1.125
Q19.7344 -1.125 16.4375 -0.140625
Q13.1406 0.828125 10.2969 2.85938
Q7.46875 4.89062 5.82812 7.84375
Q4.20312 10.7969 4.20312 14.3125
Q4.20312 17.5781 6.46875 19.8438
Q8.73438 22.125 12.1094 22.125
Q14.2656 22.125 16.0625 21.0938
Q17.875 20.0625 18.8906 18.25
Q19.9219 16.4531 19.9219 14.3125
Q19.9219 11.4219 18.2656 9.375
Q16.6094 7.32812 13.8125 6.59375" id="Cmb10-33"/>
      </defs>
      <g style="fill:#262626;" transform="translate(184.9578125 267.35625)scale(0.2 -0.2)">
       <use xlink:href="#Cmb10-33"/>
       <use x="50.0" xlink:href="#Cmb10-2d"/>
       <use x="83.30078125" xlink:href="#Cmb10-73"/>
       <use x="122.705078125" xlink:href="#Cmb10-75"/>
       <use x="178.22265625" xlink:href="#Cmb10-62"/>
       <use x="233.740234375" xlink:href="#Cmb10-2e"/>
      </g>
     </g>
    </g>
    <g id="xtick_3">
     <g id="line2d_3">
      <g>
       <use style="fill:#262626;stroke:#262626;" x="329.143125" xlink:href="#m219da94a98" y="246.478125"/>
      </g>
     </g>
     <g id="text_3">
      <!-- 3-basic. -->
      <defs>
       <path d="
M24.9062 -0.59375
Q18.3125 -0.59375 13.4062 2.34375
Q8.5 5.28125 5.90625 10.4219
Q3.32812 15.5781 3.32812 22.2188
Q3.32812 27.1562 4.8125 31.375
Q6.29688 35.5938 9.04688 38.7188
Q11.8125 41.8438 15.8906 43.5781
Q19.9688 45.3125 24.9062 45.3125
Q30.7656 45.3125 35.5625 43.1562
Q40.375 41.0156 40.375 35.8906
Q40.375 33.1094 38.5625 31.25
Q36.7656 29.3906 33.9844 29.3906
Q31.2031 29.3906 29.3438 31.2969
Q27.4844 33.2031 27.4844 35.8906
Q27.4844 38.9219 29.3906 40.4844
Q27.5938 40.9219 25 40.9219
Q21.9688 40.9219 20.2031 39.0156
Q18.4531 37.1094 17.6875 34.2812
Q16.9375 31.4531 16.7188 28.5938
Q16.5 25.7344 16.5 22.3125
Q16.5 17.7188 17.1562 13.6875
Q17.8281 9.67188 20.1094 6.73438
Q22.4062 3.8125 26.8125 3.8125
Q30.4688 3.8125 33 6.21875
Q35.5469 8.64062 36.5312 12.3125
Q36.9219 12.9375 37.7031 13.0938
L40.2812 13.0938
Q41.5 12.75 41.5 11.7188
Q41.5 11.625 41.4062 11.1875
Q39.8906 5.67188 35.3281 2.53125
Q30.7656 -0.59375 24.9062 -0.59375" id="Cmb10-63"/>
       <path d="
M2.78125 11.1875
Q2.78125 16.8906 7.3125 20.375
Q11.8594 23.875 18.0781 25.2812
Q24.3125 26.7031 30.0781 26.7031
L30.0781 30.4219
Q30.0781 34.8125 28.1719 38.0625
Q26.2656 41.3125 22.125 41.3125
Q19.4375 41.3125 16.4062 40.8281
Q18.5 38.875 18.5 35.8906
Q18.5 33.1094 16.6875 31.25
Q14.8906 29.3906 12.1094 29.3906
Q9.32812 29.3906 7.46875 31.25
Q5.60938 33.1094 5.60938 35.8906
Q5.60938 39.7031 8.26562 41.7969
Q10.9375 43.8906 14.6406 44.5938
Q18.3594 45.3125 22.2188 45.3125
Q27.0469 45.3125 31.5312 43.8125
Q36.0312 42.3281 38.9531 39.0312
Q41.8906 35.75 41.8906 30.7188
L41.8906 7.07812
Q42.3281 5.07812 46.9219 5.07812
Q48.1875 4.78125 48.4844 3.51562
L48.4844 1.60938
Q48.1875 0.296875 46.9219 0
L39.9844 0
Q36.9688 0 34.375 1.5625
Q31.7812 3.125 31.7812 6
L31.7812 6.78125
Q30.0312 3.42188 26.7031 1.40625
Q23.3906 -0.59375 19.5781 -0.59375
Q13.2812 -0.59375 8.03125 2.39062
Q2.78125 5.375 2.78125 11.1875
M20.7969 3.42188
Q23.3906 3.42188 25.5156 4.76562
Q27.6406 6.10938 28.8594 8.32812
Q30.0781 10.5469 30.0781 13.0938
L30.0781 23.0938
Q26.5156 23.0938 23 21.7031
Q19.4844 20.3125 17.1875 17.5781
Q14.8906 14.8438 14.8906 11.1875
Q14.8906 8.34375 16.5312 5.875
Q18.1719 3.42188 20.7969 3.42188" id="Cmb10-61"/>
       <path d="
M2.39062 0
L2.39062 5.07812
L9.28125 5.07812
L9.28125 36.2812
Q9.28125 38.1875 7.46875 38.6406
Q5.67188 39.1094 2.6875 39.1094
L2.6875 44.1875
L20.5156 45.0156
L20.5156 5.07812
L26.8125 5.07812
L26.8125 0
z

M5.51562 61.5312
Q5.51562 64.8906 7.8125 67.1875
Q10.1094 69.4844 13.4844 69.4844
Q16.8906 69.4844 19.1875 67.1875
Q21.4844 64.8906 21.4844 61.5312
Q21.4844 58.2031 19.1875 55.8594
Q16.8906 53.5156 13.4844 53.5156
Q10.1094 53.5156 7.8125 55.8594
Q5.51562 58.2031 5.51562 61.5312" id="Cmb10-69"/>
      </defs>
      <g style="fill:#262626;" transform="translate(297.48375 267.35625)scale(0.2 -0.2)">
       <use xlink:href="#Cmb10-33"/>
       <use x="50.0" xlink:href="#Cmb10-2d"/>
       <use x="83.30078125" xlink:href="#Cmb10-62"/>
       <use x="138.818359375" xlink:href="#Cmb10-61"/>
       <use x="187.40234375" xlink:href="#Cmb10-73"/>
       <use x="226.806640625" xlink:href="#Cmb10-69"/>
       <use x="254.4921875" xlink:href="#Cmb10-63"/>
       <use x="298.876953125" xlink:href="#Cmb10-2e"/>
      </g>
     </g>
    </g>
    <g id="xtick_4">
     <g id="line2d_4">
      <g>
       <use style="fill:#262626;stroke:#262626;" x="448.183125" xlink:href="#m219da94a98" y="246.478125"/>
      </g>
     </g>
     <g id="text_4">
      <!-- 3-sup -->
      <defs>
       <path d="
M1.42188 -19.3906
L1.42188 -14.3125
L8.29688 -14.3125
L8.29688 37.4062
Q8.29688 39.1094 1.42188 39.1094
L1.42188 44.1875
L19.4844 45.0156
L19.4844 40.9219
Q25 45.0156 31.9844 45.0156
Q36.9688 45.0156 40.75 43.2031
Q44.5312 41.4062 47.0469 38.3281
Q49.5625 35.25 50.875 31.0469
Q52.2031 26.8594 52.2031 22.2188
Q52.2031 15.625 49.5312 10.4219
Q46.875 5.21875 41.8594 2.3125
Q36.8594 -0.59375 30.3281 -0.59375
Q24.4688 -0.59375 20.125 2.875
L20.125 -14.3125
L27 -14.3125
L27 -19.3906
z

M20.125 9.07812
Q23.7344 3.42188 29.3906 3.42188
Q34.6719 3.42188 36.8438 9.51562
Q39.0156 15.625 39.0156 22.2188
Q39.0156 28.5156 37.125 34.5469
Q35.25 40.5781 30.5156 40.5781
Q27.5469 40.5781 24.8125 39.1875
Q22.0781 37.7969 20.125 35.2969
z
" id="Cmb10-70"/>
      </defs>
      <g style="fill:#262626;" transform="translate(425.56125 267.35625)scale(0.2 -0.2)">
       <use xlink:href="#Cmb10-33"/>
       <use x="50.0" xlink:href="#Cmb10-2d"/>
       <use x="83.30078125" xlink:href="#Cmb10-73"/>
       <use x="122.705078125" xlink:href="#Cmb10-75"/>
       <use x="178.22265625" xlink:href="#Cmb10-70"/>
      </g>
     </g>
    </g>
    <g id="text_5">
     <!-- training condition -->
     <defs>
      <path d="
M2.39062 -7.32812
Q2.39062 -4.4375 4.39062 -2.17188
Q6.39062 0.09375 9.28125 1.125
Q5.42188 4.4375 5.42188 10.4062
Q5.42188 15.5312 8.6875 19.5781
Q6.5 21.4844 5.25 24.3125
Q4 27.1562 4 30.1719
Q4 34.9688 6.5625 38.3594
Q9.125 41.75 13.25 43.375
Q17.3906 45.0156 22.2188 45.0156
Q29.3438 45.0156 34.0781 41.8906
Q37.9375 45.5156 43.1094 45.5156
Q45.4531 45.5156 46.9688 43.6719
Q48.4844 41.8438 48.4844 39.5
Q48.4844 37.5938 47.1875 36.2969
Q45.9062 35.0156 44 35.0156
Q42.1875 35.0156 40.8438 36.2969
Q39.5 37.5938 39.5 39.5
Q39.5 40.1875 39.5938 40.4844
Q39.6562 40.6719 39.6719 40.8125
Q39.7031 40.9688 39.7031 41.0156
Q38.0312 40.5312 36.8125 39.7031
Q40.375 35.6875 40.375 30.1719
Q40.375 26.375 38.8594 23.5781
Q37.3594 20.7969 34.8438 18.9844
Q32.3281 17.1875 29 16.2344
Q25.6875 15.2812 22.2188 15.2812
Q15.8281 15.2812 11.5312 17.6719
Q10.5938 16.2656 10.5938 14.4062
Q10.5938 11.9688 12.2344 10.2344
Q13.875 8.5 16.3125 8.5
L25.0938 8.5
Q35.4531 8.5 41.4844 5.375
Q47.5156 2.25 47.5156 -7.32812
Q47.5156 -11.0781 45.2812 -13.5625
Q43.0625 -16.0625 39.6406 -17.4688
Q36.2344 -18.8906 32.3438 -19.5
Q28.4688 -20.125 25 -20.125
Q20.0156 -20.125 14.8906 -19
Q9.76562 -17.875 6.07812 -14.9844
Q2.39062 -12.1094 2.39062 -7.32812
M11.375 -7.32812
Q11.375 -10.5 13.4688 -12.4688
Q15.5781 -14.4531 18.6719 -15.2812
Q21.7812 -16.1094 25 -16.1094
Q30.125 -16.1094 34.2969 -14.0156
Q38.4844 -11.9219 38.4844 -7.32812
Q38.4844 -3.5625 34.5156 -2.53125
Q30.5625 -1.51562 25.0938 -1.51562
L16.3125 -1.51562
Q13.9219 -1.51562 12.6406 -3.14062
Q11.375 -4.78125 11.375 -7.32812
M22.2188 19.2812
Q25.3438 19.2812 26.7969 20.7969
Q28.2656 22.3125 28.5781 24.4531
Q28.9062 26.6094 28.9062 29.9844
L28.9062 30.3281
Q28.9062 33.6875 28.5781 35.8281
Q28.2656 37.9844 26.7969 39.5
Q25.3438 41.0156 22.2188 41.0156
Q19.1875 41.0156 17.6406 39.5156
Q16.1094 38.0312 15.7969 35.875
Q15.4844 33.7344 15.4844 30.3281
L15.4844 29.9844
Q15.4844 26.6094 15.7969 24.4531
Q16.1094 22.3125 17.625 20.7969
Q19.1406 19.2812 22.2188 19.2812" id="Cmb10-67"/>
      <path d="
M24.0312 -0.59375
Q17.5781 -0.59375 12.8906 2.40625
Q8.20312 5.42188 5.76562 10.6719
Q3.32812 15.9219 3.32812 22.2188
Q3.32812 28.7656 5.98438 33.9531
Q8.64062 39.1562 13.5625 42.0781
Q18.5 45.0156 25.0938 45.0156
Q31.2031 45.0156 35.9844 41.3125
L35.9844 60.6875
Q35.9844 62.5469 34.0312 63.0156
Q32.0781 63.4844 29.1094 63.4844
L29.1094 68.6094
L47.2188 69.3906
L47.2188 7.90625
Q47.2188 6.15625 49.1719 5.60938
Q51.125 5.07812 54.1094 5.07812
L54.1094 0
L35.4062 -0.59375
L35.4062 3.42188
Q30.5156 -0.59375 24.0312 -0.59375
M25 3.42188
Q28.2656 3.42188 30.9531 5.09375
Q33.6406 6.78125 35.4062 9.625
L35.4062 35.8906
Q33.7969 38.1406 31.2969 39.5781
Q28.8125 41.0156 26.125 41.0156
Q21.7812 41.0156 19.625 38.0625
Q17.4844 35.1094 16.9844 31.2969
Q16.5 27.4844 16.5 22.4062
L16.5 22.125
Q16.5 18.6562 16.6875 15.75
Q16.8906 12.8438 17.6719 10
Q18.4531 7.17188 20.2344 5.29688
Q22.0156 3.42188 25 3.42188" id="Cmb10-64"/>
      <path d="
M8.01562 11.7188
L8.01562 39.3125
L1.90625 39.3125
L1.90625 43.3125
Q6.5 43.3125 9.375 46.5
Q12.25 49.7031 13.4688 54.4062
Q14.7031 59.125 14.7031 63.4844
L19.8281 63.4844
L19.8281 44.3906
L31.6875 44.3906
L31.6875 39.3125
L19.8281 39.3125
L19.8281 12.0156
Q19.8281 8.64062 20.625 6.21875
Q21.4375 3.8125 24.0312 3.8125
Q26.375 3.8125 27.2969 6.39062
Q28.2188 8.98438 28.2188 12.0156
L28.2188 17.6719
L33.2969 17.6719
L33.2969 11.7188
Q33.2969 8.79688 32.0469 5.90625
Q30.8125 3.03125 28.4688 1.21875
Q26.125 -0.59375 23 -0.59375
Q16.3594 -0.59375 12.1875 2.35938
Q8.01562 5.32812 8.01562 11.7188" id="Cmb10-74"/>
      <path d="
M1.42188 0
L1.42188 5.07812
L8.29688 5.07812
L8.29688 36.2812
Q8.29688 39.1094 1.42188 39.1094
L1.42188 44.1875
L18.4062 45.0156
L18.4062 36.8125
Q19.8281 40.5312 22.4375 42.7656
Q25.0469 45.0156 28.7188 45.0156
Q31.3438 45.0156 33.9531 44.0938
Q36.5781 43.1719 38.2812 41.2656
Q39.9844 39.3594 39.9844 36.625
Q39.9844 34.0312 38.1719 32.1719
Q36.375 30.3281 33.6875 30.3281
Q31 30.3281 29.1875 32.1719
Q27.3906 34.0312 27.3906 36.625
Q27.3906 39.2656 29 41.0156
L28.7188 41.0156
Q23.25 41.0156 21.3594 35.125
Q19.4844 29.25 19.4844 22.125
L19.4844 5.07812
L28.2188 5.07812
L28.2188 0
z
" id="Cmb10-72"/>
      <path id="Cmb10-20"/>
      <path d="
M2.20312 0
L2.20312 5.07812
L9.07812 5.07812
L9.07812 36.2812
Q9.07812 39.1094 2.20312 39.1094
L2.20312 44.1875
L19.8281 45.0156
L19.8281 35.2969
Q22.0781 39.7031 26.0312 42.3594
Q29.9844 45.0156 34.8125 45.0156
Q39.7031 45.0156 42.7031 43.4688
Q45.7031 41.9375 47.1406 38.7812
Q48.5781 35.6406 48.5781 30.7188
L48.5781 5.07812
L55.5156 5.07812
L55.5156 0
L30.7188 0
L30.7188 5.07812
L36.8125 5.07812
L36.8125 30.4219
L36.8125 30.7188
Q36.8125 41.0156 33.5938 41.0156
Q30.7656 41.0156 28.3906 39.7656
Q26.0312 38.5312 24.3438 36.3594
Q22.6562 34.1875 21.7812 31.5625
Q20.9062 28.9531 20.9062 26.125
L20.9062 5.07812
L27.7812 5.07812
L27.7812 0
z
" id="Cmb10-6e"/>
      <path d="
M25 -0.59375
Q18.3125 -0.59375 13.2969 2.1875
Q8.29688 4.98438 5.53125 10.1094
Q2.78125 15.2344 2.78125 21.7812
Q2.78125 26.7656 4.26562 31.1094
Q5.76562 35.4531 8.64062 38.625
Q11.5312 41.7969 15.7188 43.5469
Q19.9219 45.3125 25 45.3125
Q30.125 45.3125 34.2969 43.5469
Q38.4844 41.7969 41.3125 38.625
Q44.1406 35.4531 45.625 31.2031
Q47.125 26.9531 47.125 21.7812
Q47.125 15.2344 44.3906 10.1094
Q41.6562 4.98438 36.625 2.1875
Q31.5938 -0.59375 25 -0.59375
M25 3.8125
Q29.0469 3.8125 31.0312 6.89062
Q33.0156 9.96875 33.4531 13.9219
Q33.8906 17.875 33.8906 23.0938
Q33.8906 26.8594 33.6875 29.7031
Q33.5 32.5625 32.6875 35.2031
Q31.8906 37.8438 30.0312 39.5781
Q28.1719 41.3125 25 41.3125
Q20.9062 41.3125 18.8906 38.4219
Q16.8906 35.5469 16.4531 31.8594
Q16.0156 28.1719 16.0156 23.0938
Q16.0156 17.875 16.4531 13.9375
Q16.8906 10.0156 18.8906 6.90625
Q20.9062 3.8125 25 3.8125" id="Cmb10-6f"/>
     </defs>
     <g style="fill:#262626;" transform="translate(205.9734375 290.13125)scale(0.2 -0.2)">
      <use xlink:href="#Cmb10-74"/>
      <use x="39.013671875" xlink:href="#Cmb10-72"/>
      <use x="81.689453125" xlink:href="#Cmb10-61"/>
      <use x="130.2734375" xlink:href="#Cmb10-69"/>
      <use x="157.958984375" xlink:href="#Cmb10-6e"/>
      <use x="213.4765625" xlink:href="#Cmb10-69"/>
      <use x="241.162109375" xlink:href="#Cmb10-6e"/>
      <use x="296.6796875" xlink:href="#Cmb10-67"/>
      <use x="346.6796875" xlink:href="#Cmb10-20"/>
      <use x="379.98046875" xlink:href="#Cmb10-63"/>
      <use x="424.365234375" xlink:href="#Cmb10-6f"/>
      <use x="474.365234375" xlink:href="#Cmb10-6e"/>
      <use x="529.8828125" xlink:href="#Cmb10-64"/>
      <use x="585.400390625" xlink:href="#Cmb10-69"/>
      <use x="613.0859375" xlink:href="#Cmb10-74"/>
      <use x="652.099609375" xlink:href="#Cmb10-69"/>
      <use x="679.78515625" xlink:href="#Cmb10-6f"/>
      <use x="729.78515625" xlink:href="#Cmb10-6e"/>
     </g>
    </g>
   </g>
   <g id="matplotlib.axis_2">
    <g id="ytick_1">
     <g id="line2d_5">
      <g>
       <use style="fill:#262626;stroke:#262626;" x="61.303125" xlink:href="#m219da94a98" y="246.478125"/>
      </g>
     </g>
     <g id="text_6">
      <!-- 0.0 -->
      <defs>
       <path d="
M25 -1.125
Q18.3594 -1.125 14.0312 1.75
Q9.71875 4.64062 7.51562 9.51562
Q5.32812 14.4062 4.60938 19.8906
Q3.90625 25.3906 3.90625 31.7812
Q3.90625 40.7188 5.375 48.0938
Q6.84375 55.4688 11.5 60.4688
Q16.1562 65.4844 25 65.4844
Q37.6406 65.4844 41.8125 55.9375
Q46 46.3906 46 31.7812
Q46 22.9062 44.5469 15.75
Q43.1094 8.59375 38.4531 3.73438
Q33.7969 -1.125 25 -1.125
M17.6719 9.90625
Q18.5 6.9375 20.4062 4.90625
Q22.3125 2.875 25 2.875
Q27.5938 2.875 29.5156 4.95312
Q31.4531 7.03125 32.1719 9.90625
Q32.8125 12.4062 32.8125 33.5
Q32.8125 52.7812 32.1719 55.0781
Q31.3438 57.7656 29.4688 59.6406
Q27.5938 61.5312 25 61.5312
Q22.4062 61.5312 20.5 59.6719
Q18.6094 57.8125 17.6719 55.0781
Q17.0938 52.7812 17.0938 33.5
Q17.0938 12.4062 17.6719 9.90625" id="Cmb10-30"/>
      </defs>
      <g style="fill:#262626;" transform="translate(30.346875 251.478125)scale(0.2 -0.2)">
       <use xlink:href="#Cmb10-30"/>
       <use x="50.0" xlink:href="#Cmb10-2e"/>
       <use x="77.685546875" xlink:href="#Cmb10-30"/>
      </g>
     </g>
    </g>
    <g id="ytick_2">
     <g id="line2d_6">
      <g>
       <use style="fill:#262626;stroke:#262626;" x="61.303125" xlink:href="#m219da94a98" y="200.398125"/>
      </g>
     </g>
     <g id="text_7">
      <!-- 0.2 -->
      <defs>
       <path d="
M4.98438 0
L4.98438 3.90625
Q5.03125 4.15625 5.42188 4.6875
L20.7031 23.875
Q23.5781 27.5469 25.7812 31.0625
Q27.9844 34.5781 29.3438 38.4219
Q30.7188 42.2812 30.7188 46.2969
Q30.7188 49.6094 29.7812 52.9062
Q28.8594 56.2031 26.75 58.2969
Q24.6562 60.4062 21.1875 60.4062
Q17 60.4062 13.9219 57.625
Q16.6094 57.0312 18.2188 55.0312
Q19.8281 53.0312 19.8281 50.2969
Q19.8281 47.125 17.6719 45.0156
Q15.5312 42.9219 12.4062 42.9219
Q10.2969 42.9219 8.64062 43.875
Q6.98438 44.8281 5.98438 46.5312
Q4.98438 48.25 4.98438 50.2969
Q4.98438 54.9375 7.6875 58.3906
Q10.4062 61.8594 14.7031 63.6719
Q19 65.4844 23.5781 65.4844
Q29.25 65.4844 34.1562 63.1406
Q39.0625 60.7969 41.9844 56.3906
Q44.9219 52 44.9219 46.2969
Q44.9219 42.3906 43.2812 39.0625
Q41.6562 35.75 39.2031 33.1719
Q36.7656 30.6094 32.2031 26.7031
Q27.6406 22.7969 26.8125 22.0156
L17.2812 12.8906
L21.6875 12.8906
Q37.0156 12.8906 37.5 13.4844
Q38.875 14.8438 39.7969 22.6094
L44.9219 22.6094
L41.7969 0
z
" id="Cmb10-32"/>
      </defs>
      <g style="fill:#262626;" transform="translate(30.5625 205.398125)scale(0.2 -0.2)">
       <use xlink:href="#Cmb10-30"/>
       <use x="50.0" xlink:href="#Cmb10-2e"/>
       <use x="77.685546875" xlink:href="#Cmb10-32"/>
      </g>
     </g>
    </g>
    <g id="ytick_3">
     <g id="line2d_7">
      <g>
       <use style="fill:#262626;stroke:#262626;" x="61.303125" xlink:href="#m219da94a98" y="154.318125"/>
      </g>
     </g>
     <g id="text_8">
      <!-- 0.4 -->
      <defs>
       <path d="
M17.0938 0
L17.0938 5.07812
L26.8125 5.07812
L26.8125 15.4844
L2.78125 15.4844
L2.78125 20.6094
L33.5938 64.3125
Q34.1875 65.1875 35.4062 65.1875
L37.8906 65.1875
Q38.7188 65.1875 39.2031 64.6875
Q39.7031 64.2031 39.7031 63.375
L39.7031 20.6094
L47.125 20.6094
L47.125 15.4844
L39.7031 15.4844
L39.7031 5.07812
L47.125 5.07812
L47.125 0
z

M8.20312 20.6094
L27.875 20.6094
L27.875 48.4844
z
" id="Cmb10-34"/>
      </defs>
      <g style="fill:#262626;" transform="translate(30.121875 159.318125)scale(0.2 -0.2)">
       <use xlink:href="#Cmb10-30"/>
       <use x="50.0" xlink:href="#Cmb10-2e"/>
       <use x="77.685546875" xlink:href="#Cmb10-34"/>
      </g>
     </g>
    </g>
    <g id="ytick_4">
     <g id="line2d_8">
      <g>
       <use style="fill:#262626;stroke:#262626;" x="61.303125" xlink:href="#m219da94a98" y="108.238125"/>
      </g>
     </g>
     <g id="text_9">
      <!-- 0.6 -->
      <defs>
       <path d="
M25 -1.125
Q18.6562 -1.125 14.4062 2
Q10.1562 5.125 8 10
Q5.85938 14.8906 5.03125 20.6562
Q4.20312 26.4219 4.20312 32.3281
Q4.20312 41.0156 7.03125 48.5625
Q9.85938 56.1094 15.7969 60.7969
Q21.7344 65.4844 30.5156 65.4844
Q36.2812 65.4844 39.75 61.8906
Q43.2188 58.2969 43.2188 52.5938
Q43.2188 49.9062 41.3125 48.0469
Q39.4062 46.1875 36.8125 46.1875
Q34.125 46.1875 32.2188 48.0469
Q30.3281 49.9062 30.3281 52.5938
Q30.3281 55.0781 31.9531 56.9375
Q33.5938 58.7969 35.9844 58.9844
Q34.125 61.1875 30.5156 61.1875
Q25.0469 61.1875 22.3281 57.3438
Q19.625 53.5156 18.9219 48.5625
Q18.2188 43.6094 18.2188 37.5938
Q21.1875 42 26.125 42
Q32.2344 42 36.7188 39.2656
Q41.2188 36.5312 43.4531 31.6875
Q45.7031 26.8594 45.7031 20.6094
Q45.7031 10.8906 40.1562 4.875
Q34.625 -1.125 25 -1.125
M25 3.60938
Q27.1562 3.60938 28.8594 4.70312
Q30.5625 5.8125 31.2031 7.8125
Q31.6875 10.1094 31.6875 20.5156
L31.6875 20.7969
Q31.6875 31.7812 31.2969 33.7969
Q30.7188 35.6875 29.1562 36.8281
Q27.5938 37.9844 25.4844 37.9844
Q20.9531 37.9844 19.625 33.1562
Q18.3125 28.3281 18.3125 22.125
L18.3125 20.4062
Q18.3125 13.7656 19.4844 8.6875
Q20.6562 3.60938 25 3.60938" id="Cmb10-36"/>
      </defs>
      <g style="fill:#262626;" transform="translate(30.40625 113.238125)scale(0.2 -0.2)">
       <use xlink:href="#Cmb10-30"/>
       <use x="50.0" xlink:href="#Cmb10-2e"/>
       <use x="77.685546875" xlink:href="#Cmb10-36"/>
      </g>
     </g>
    </g>
    <g id="ytick_5">
     <g id="line2d_9">
      <g>
       <use style="fill:#262626;stroke:#262626;" x="61.303125" xlink:href="#m219da94a98" y="62.158125"/>
      </g>
     </g>
     <g id="text_10">
      <!-- 0.8 -->
      <defs>
       <path d="
M4.20312 16.4062
Q4.20312 21.625 6.98438 25.625
Q9.76562 29.6406 14.7969 32.625
Q11.1875 35.0625 9.03125 39.0781
Q6.89062 43.1094 6.89062 47.5156
Q6.89062 52.7812 9.15625 56.875
Q11.4219 60.9844 15.5156 63.2344
Q19.625 65.4844 25 65.4844
Q29.8281 65.4844 33.9219 63.8125
Q38.0312 62.1562 40.5156 58.7656
Q43.0156 55.375 43.0156 50.4844
Q43.0156 42.3281 34.625 37.2031
Q39.9844 33.8438 42.8438 29.4844
Q45.7031 25.1406 45.7031 19.1875
Q45.7031 14.6562 44.2031 10.8438
Q42.7188 7.03125 40.0156 4.42188
Q37.3125 1.8125 33.4219 0.34375
Q29.5469 -1.125 25 -1.125
Q19.2812 -1.125 14.5469 0.828125
Q9.8125 2.78125 7 6.70312
Q4.20312 10.6406 4.20312 16.4062
M25 3.60938
Q29.9844 3.60938 33.3438 6.20312
Q36.7188 8.79688 36.7188 13.625
Q36.7188 15.9688 35.4219 18.0938
Q34.125 20.2188 31.9844 21.5781
L19.3906 29.6875
Q16.3594 27.3906 14.7656 23.8281
Q13.1875 20.2656 13.1875 16.4062
Q13.1875 10.8438 16.3281 7.21875
Q19.4844 3.60938 25 3.60938
M18.4062 47.7031
L30.1719 40.0938
Q32.5625 42.1875 33.8281 44.7969
Q35.1094 47.4062 35.1094 50.4844
Q35.1094 55.2188 32.375 58.2031
Q29.6406 61.1875 24.9062 61.1875
Q20.75 61.1875 17.7656 59.2969
Q14.7969 57.4219 14.7969 53.5156
Q14.7969 51.7656 15.8125 50.2031
Q16.8438 48.6406 18.4062 47.7031" id="Cmb10-38"/>
      </defs>
      <g style="fill:#262626;" transform="translate(30.40625 67.158125)scale(0.2 -0.2)">
       <use xlink:href="#Cmb10-30"/>
       <use x="50.0" xlink:href="#Cmb10-2e"/>
       <use x="77.685546875" xlink:href="#Cmb10-38"/>
      </g>
     </g>
    </g>
    <g id="ytick_6">
     <g id="line2d_10">
      <g>
       <use style="fill:#262626;stroke:#262626;" x="61.303125" xlink:href="#m219da94a98" y="16.078125"/>
      </g>
     </g>
     <g id="text_11">
      <!-- 1.0 -->
      <g style="fill:#262626;" transform="translate(30.94375 21.078125)scale(0.2 -0.2)">
       <use xlink:href="#Cmb10-31"/>
       <use x="50.0" xlink:href="#Cmb10-2e"/>
       <use x="77.685546875" xlink:href="#Cmb10-30"/>
      </g>
     </g>
    </g>
    <g id="text_12">
     <!-- generalization probability -->
     <defs>
      <path d="
M2.78125 22.5156
Q2.78125 29 5.46875 34.2031
Q8.15625 39.4062 13.1562 42.3594
Q18.1719 45.3125 24.7031 45.3125
Q31.2969 45.3125 35.5469 42.5938
Q39.7969 39.8906 41.7969 35.0312
Q43.7969 30.1719 43.7969 23.7812
Q43.7969 22.3125 42.1875 21.7812
L16.0156 21.7812
Q16.0156 16.8438 16.7188 12.9531
Q17.4375 9.07812 19.9219 6.4375
Q22.4062 3.8125 27.2031 3.8125
Q31.25 3.8125 34.5 6.15625
Q37.75 8.5 38.8125 12.3125
Q39.3594 13.2344 40.2812 13.4844
L42.1875 13.4844
Q43.7969 13.1406 43.7969 11.7188
Q43.7969 11.625 43.7031 11.0781
Q42.5312 7.42188 39.8906 4.8125
Q37.25 2.20312 33.5938 0.796875
Q29.9375 -0.59375 26.125 -0.59375
Q21.0469 -0.59375 16.75 1.04688
Q12.4531 2.6875 9.32812 5.73438
Q6.20312 8.79688 4.48438 13.0625
Q2.78125 17.3281 2.78125 22.5156
M16.0156 25.4844
L33.8906 25.4844
Q33.8906 29.2031 33.125 32.7344
Q32.375 36.2812 30.3125 38.7969
Q28.2656 41.3125 24.7031 41.3125
Q19.5312 41.3125 17.7656 36.5781
Q16.0156 31.8438 16.0156 25.4844" id="Cmb10-65"/>
      <path d="
M11.0781 -20.0156
Q7.32812 -20.0156 4.60938 -17.1875
Q1.90625 -14.3594 1.90625 -10.5
Q1.90625 -8.01562 3.60938 -6.29688
Q5.32812 -4.59375 7.90625 -4.59375
Q10.4062 -4.59375 12.1094 -6.29688
Q13.8125 -8.01562 13.8125 -10.5
Q13.8125 -14.4531 10.5 -15.9219
Q10.6875 -16.0156 11.0781 -16.0156
Q14.4531 -16.0156 16.9219 -13.5781
Q19.3906 -11.1406 20.7031 -7.71875
L23.5781 0
L8.59375 39.3125
L2.20312 39.3125
L2.20312 44.3906
L26.125 44.3906
L26.125 39.3125
L20.6094 39.3125
L29.5938 15.7188
L38.375 38.4844
Q38.375 38.9688 36.5938 39.1406
Q34.8125 39.3125 33.1094 39.3125
L33.1094 44.3906
L50.4844 44.3906
L50.4844 39.3125
Q44.1875 39.3125 43.7969 38.375
L26.125 -7.71875
Q24.125 -12.8438 20.1719 -16.4219
Q16.2188 -20.0156 11.0781 -20.0156" id="Cmb10-79"/>
      <path d="
M4.59375 0
Q3.85938 0 3.3125 0.484375
Q2.78125 0.984375 2.78125 1.8125
L2.78125 2.875
Q2.78125 3.46875 3.07812 3.90625
L26.3125 40.375
L22.0156 40.375
Q14.7969 40.375 12.0312 37.125
Q9.28125 33.8906 9.28125 26.5156
L4.20312 26.5156
L5.42188 44.3906
L38.0938 44.3906
Q38.9219 44.3906 39.4062 43.8906
Q39.8906 43.4062 39.8906 42.5781
L39.8906 41.7031
Q39.8906 41.1562 39.5938 40.7188
L16.5 4.39062
L21.2969 4.39062
Q28.2188 4.39062 31.3906 7.625
Q33.1562 9.42188 33.8906 12.7188
Q34.625 16.0156 35.0156 20.6094
L40.0938 20.6094
L38.2812 0
z
" id="Cmb10-7a"/>
      <path d="
M2.39062 0
L2.39062 5.07812
L9.28125 5.07812
L9.28125 60.6875
Q9.28125 62.5469 7.32812 63.0156
Q5.375 63.4844 2.39062 63.4844
L2.39062 68.6094
L20.5156 69.3906
L20.5156 5.07812
L27.3906 5.07812
L27.3906 0
z
" id="Cmb10-6c"/>
     </defs>
     <g style="fill:#262626;" transform="translate(21.096875 243.6921875)rotate(-90.0)scale(0.2 -0.2)">
      <use xlink:href="#Cmb10-67"/>
      <use x="50.0" xlink:href="#Cmb10-65"/>
      <use x="96.58203125" xlink:href="#Cmb10-6e"/>
      <use x="152.099609375" xlink:href="#Cmb10-65"/>
      <use x="198.681640625" xlink:href="#Cmb10-72"/>
      <use x="241.357421875" xlink:href="#Cmb10-61"/>
      <use x="289.94140625" xlink:href="#Cmb10-6c"/>
      <use x="317.626953125" xlink:href="#Cmb10-69"/>
      <use x="345.3125" xlink:href="#Cmb10-7a"/>
      <use x="389.697265625" xlink:href="#Cmb10-61"/>
      <use x="438.28125" xlink:href="#Cmb10-74"/>
      <use x="477.294921875" xlink:href="#Cmb10-69"/>
      <use x="504.98046875" xlink:href="#Cmb10-6f"/>
      <use x="554.98046875" xlink:href="#Cmb10-6e"/>
      <use x="610.498046875" xlink:href="#Cmb10-20"/>
      <use x="643.798828125" xlink:href="#Cmb10-70"/>
      <use x="699.31640625" xlink:href="#Cmb10-72"/>
      <use x="741.9921875" xlink:href="#Cmb10-6f"/>
      <use x="791.9921875" xlink:href="#Cmb10-62"/>
      <use x="847.509765625" xlink:href="#Cmb10-61"/>
      <use x="896.09375" xlink:href="#Cmb10-62"/>
      <use x="951.611328125" xlink:href="#Cmb10-69"/>
      <use x="979.296875" xlink:href="#Cmb10-6c"/>
      <use x="1006.98242188" xlink:href="#Cmb10-69"/>
      <use x="1034.66796875" xlink:href="#Cmb10-74"/>
      <use x="1073.68164062" xlink:href="#Cmb10-79"/>
     </g>
    </g>
   </g>
   <g id="patch_3">
    <path clip-path="url(#p831ba079c3)" d="
M61.3031 246.478
L91.0631 246.478
L91.0631 211.633
L61.3031 211.633
z
" style="fill:#5ccccc;stroke:#000000;stroke-width:0.3;"/>
   </g>
   <g id="patch_4">
    <path clip-path="url(#p831ba079c3)" d="
M180.343 246.478
L210.103 246.478
L210.103 97.9578
L180.343 97.9578
z
" style="fill:#5ccccc;stroke:#000000;stroke-width:0.3;"/>
   </g>
   <g id="patch_5">
    <path clip-path="url(#p831ba079c3)" d="
M299.383 246.478
L329.143 246.478
L329.143 171.929
L299.383 171.929
z
" style="fill:#5ccccc;stroke:#000000;stroke-width:0.3;"/>
   </g>
   <g id="patch_6">
    <path clip-path="url(#p831ba079c3)" d="
M418.423 246.478
L448.183 246.478
L448.183 201.162
L418.423 201.162
z
" style="fill:#5ccccc;stroke:#000000;stroke-width:0.3;"/>
   </g>
   <g id="patch_7">
    <path clip-path="url(#p831ba079c3)" d="
M91.0631 246.478
L120.823 246.478
L120.823 211.633
L91.0631 211.633
z
" style="fill:#269926;stroke:#000000;stroke-width:0.3;"/>
   </g>
   <g id="patch_8">
    <path clip-path="url(#p831ba079c3)" d="
M210.103 246.478
L239.863 246.478
L239.863 227.131
L210.103 227.131
z
" style="fill:#269926;stroke:#000000;stroke-width:0.3;"/>
   </g>
   <g id="patch_9">
    <path clip-path="url(#p831ba079c3)" d="
M329.143 246.478
L358.903 246.478
L358.903 171.929
L329.143 171.929
z
" style="fill:#269926;stroke:#000000;stroke-width:0.3;"/>
   </g>
   <g id="patch_10">
    <path clip-path="url(#p831ba079c3)" d="
M448.183 246.478
L477.943 246.478
L477.943 201.162
L448.183 201.162
z
" style="fill:#269926;stroke:#000000;stroke-width:0.3;"/>
   </g>
   <g id="patch_11">
    <path clip-path="url(#p831ba079c3)" d="
M120.823 246.478
L150.583 246.478
L150.583 240.774
L120.823 240.774
z
" style="fill:#06266f;stroke:#000000;stroke-width:0.3;"/>
   </g>
   <g id="patch_12">
    <path clip-path="url(#p831ba079c3)" d="
M239.863 247.004
L269.623 247.004
L269.623 246.478
L239.863 246.478
z
" style="fill:#06266f;stroke:#000000;stroke-width:0.3;"/>
   </g>
   <g id="patch_13">
    <path clip-path="url(#p831ba079c3)" d="
M358.903 247.161
L388.663 247.161
L388.663 246.478
L358.903 246.478
z
" style="fill:#06266f;stroke:#000000;stroke-width:0.3;"/>
   </g>
   <g id="patch_14">
    <path clip-path="url(#p831ba079c3)" d="
M477.943 246.478
L507.703 246.478
L507.703 206.693
L477.943 206.693
z
" style="fill:#06266f;stroke:#000000;stroke-width:0.3;"/>
   </g>
   <g id="patch_15">
    <path d="
M61.3031 246.478
L61.3031 16.0781" style="fill:none;stroke:#262626;stroke-width:1.25;"/>
   </g>
   <g id="legend_1">
    <g id="patch_16">
     <path d="
M338.239 44.8781
L374.239 44.8781
L374.239 32.2781
L338.239 32.2781
z
" style="fill:#5ccccc;stroke:#000000;stroke-width:0.3;"/>
    </g>
    <g id="text_13">
     <!-- sub. match -->
     <defs>
      <path d="
M2.20312 0
L2.20312 5.07812
L9.07812 5.07812
L9.07812 36.2812
Q9.07812 39.1094 2.20312 39.1094
L2.20312 44.1875
L19.8281 45.0156
L19.8281 35.2969
Q22.0781 39.7031 26.0312 42.3594
Q29.9844 45.0156 34.8125 45.0156
Q45.9062 45.0156 48 36.2812
Q49.5156 38.8125 51.75 40.8125
Q54 42.8281 56.7344 43.9219
Q59.4688 45.0156 62.5 45.0156
Q69.6719 45.0156 72.9844 41.5156
Q76.3125 38.0312 76.3125 30.7188
L76.3125 5.07812
L83.2031 5.07812
L83.2031 0
L58.4062 0
L58.4062 5.07812
L64.5 5.07812
L64.5 30.4219
L64.5 30.7188
Q64.5 41.0156 61.2812 41.0156
Q57.5156 41.0156 54.6094 38.8438
Q51.7031 36.6719 50.1406 33.2031
Q48.5781 29.7344 48.5781 26.125
L48.5781 5.07812
L55.5156 5.07812
L55.5156 0
L30.7188 0
L30.7188 5.07812
L36.8125 5.07812
L36.8125 30.4219
L36.8125 30.7188
Q36.8125 41.0156 33.5938 41.0156
Q30.7656 41.0156 28.3906 39.7656
Q26.0312 38.5312 24.3438 36.3594
Q22.6562 34.1875 21.7812 31.5625
Q20.9062 28.9531 20.9062 26.125
L20.9062 5.07812
L27.7812 5.07812
L27.7812 0
z
" id="Cmb10-6d"/>
      <path d="
M2.20312 0
L2.20312 5.07812
L9.07812 5.07812
L9.07812 60.6875
Q9.07812 62.5469 7.125 63.0156
Q5.17188 63.4844 2.20312 63.4844
L2.20312 68.6094
L20.3125 69.3906
L20.3125 36.1875
Q22.6562 40.2344 26.4688 42.625
Q30.2812 45.0156 34.8125 45.0156
Q39.7031 45.0156 42.7031 43.4688
Q45.7031 41.9375 47.1406 38.7812
Q48.5781 35.6406 48.5781 30.7188
L48.5781 5.07812
L55.5156 5.07812
L55.5156 0
L30.7188 0
L30.7188 5.07812
L36.8125 5.07812
L36.8125 30.4219
L36.8125 30.7188
Q36.8125 41.0156 33.5938 41.0156
Q30.7656 41.0156 28.3906 39.7656
Q26.0312 38.5312 24.3438 36.3594
Q22.6562 34.1875 21.7812 31.5625
Q20.9062 28.9531 20.9062 26.125
L20.9062 5.07812
L27.7812 5.07812
L27.7812 0
z
" id="Cmb10-68"/>
     </defs>
     <g style="fill:#262626;" transform="translate(388.63875 44.878125)scale(0.18 -0.18)">
      <use xlink:href="#Cmb10-73"/>
      <use x="39.404296875" xlink:href="#Cmb10-75"/>
      <use x="94.921875" xlink:href="#Cmb10-62"/>
      <use x="150.439453125" xlink:href="#Cmb10-2e"/>
      <use x="178.125" xlink:href="#Cmb10-20"/>
      <use x="211.42578125" xlink:href="#Cmb10-6d"/>
      <use x="294.7265625" xlink:href="#Cmb10-61"/>
      <use x="343.310546875" xlink:href="#Cmb10-74"/>
      <use x="382.32421875" xlink:href="#Cmb10-63"/>
      <use x="426.708984375" xlink:href="#Cmb10-68"/>
     </g>
    </g>
    <g id="patch_17">
     <path d="
M338.239 69.9684
L374.239 69.9684
L374.239 57.3684
L338.239 57.3684
z
" style="fill:#269926;stroke:#000000;stroke-width:0.3;"/>
    </g>
    <g id="text_14">
     <!-- basic match -->
     <g style="fill:#262626;" transform="translate(388.63875 69.9684375)scale(0.18 -0.18)">
      <use xlink:href="#Cmb10-62"/>
      <use x="55.517578125" xlink:href="#Cmb10-61"/>
      <use x="104.1015625" xlink:href="#Cmb10-73"/>
      <use x="143.505859375" xlink:href="#Cmb10-69"/>
      <use x="171.19140625" xlink:href="#Cmb10-63"/>
      <use x="215.576171875" xlink:href="#Cmb10-20"/>
      <use x="248.876953125" xlink:href="#Cmb10-6d"/>
      <use x="332.177734375" xlink:href="#Cmb10-61"/>
      <use x="380.76171875" xlink:href="#Cmb10-74"/>
      <use x="419.775390625" xlink:href="#Cmb10-63"/>
      <use x="464.16015625" xlink:href="#Cmb10-68"/>
     </g>
    </g>
    <g id="patch_18">
     <path d="
M338.239 95.0588
L374.239 95.0588
L374.239 82.4588
L338.239 82.4588
z
" style="fill:#06266f;stroke:#000000;stroke-width:0.3;"/>
    </g>
    <g id="text_15">
     <!-- super. match -->
     <g style="fill:#262626;" transform="translate(388.63875 95.05875)scale(0.18 -0.18)">
      <use xlink:href="#Cmb10-73"/>
      <use x="39.404296875" xlink:href="#Cmb10-75"/>
      <use x="94.921875" xlink:href="#Cmb10-70"/>
      <use x="150.439453125" xlink:href="#Cmb10-65"/>
      <use x="197.021484375" xlink:href="#Cmb10-72"/>
      <use x="239.697265625" xlink:href="#Cmb10-2e"/>
      <use x="267.3828125" xlink:href="#Cmb10-20"/>
      <use x="300.68359375" xlink:href="#Cmb10-6d"/>
      <use x="383.984375" xlink:href="#Cmb10-61"/>
      <use x="432.568359375" xlink:href="#Cmb10-74"/>
      <use x="471.58203125" xlink:href="#Cmb10-63"/>
      <use x="515.966796875" xlink:href="#Cmb10-68"/>
     </g>
    </g>
   </g>
  </g>
 </g>
 <defs>
  <clipPath id="p831ba079c3">
   <rect height="230.4" width="446.4" x="61.303125" y="16.078125"/>
  </clipPath>
 </defs>
</svg>
